<svg width="12" height="12" viewBox="0 0 12 12" fill="none" xmlns="http://www.w3.org/2000/svg">
<path d="M1.78201 6.36167L11.4783 6.36167C11.6167 6.36167 11.7494 6.30671 11.8472 6.20887C11.945 6.11103 12 5.97834 12 5.83997C12 5.70161 11.945 5.56891 11.8472 5.47108C11.7494 5.37324 11.6167 5.31827 11.4783 5.31827L1.78201 5.31827L5.58728 1.51405C5.68524 1.41609 5.74028 1.28322 5.74028 1.14468C5.74028 1.00615 5.68524 0.873283 5.58728 0.775323C5.48932 0.677361 5.35646 0.622328 5.21792 0.622328C5.07938 0.622328 4.94652 0.677361 4.84856 0.775323L0.153268 5.47061C0.104684 5.51907 0.0661383 5.57664 0.0398378 5.64002C0.0135384 5.7034 0 5.77135 0 5.83997C0 5.90859 0.0135384 5.97654 0.0398378 6.03992C0.0661383 6.1033 0.104684 6.16087 0.153268 6.20934L4.84856 10.9046C4.94652 11.0026 5.07938 11.0576 5.21792 11.0576C5.35646 11.0576 5.48932 11.0026 5.58728 10.9046C5.68524 10.8067 5.74028 10.6738 5.74028 10.5353C5.74028 10.3967 5.68524 10.2639 5.58728 10.1659L1.78201 6.36167Z" fill="white"/>
</svg>
