<svg width="12" height="12" viewBox="0 0 12 12" fill="none" xmlns="http://www.w3.org/2000/svg">
<path d="M10.218 5.31826H0.521699C0.383336 5.31826 0.25064 5.37323 0.152802 5.47106C0.0549646 5.5689 0 5.7016 0 5.83996C0 5.97832 0.0549646 6.11102 0.152802 6.20886C0.25064 6.30669 0.383336 6.36166 0.521699 6.36166H10.218L6.41272 10.1659C6.31476 10.2638 6.25972 10.3967 6.25972 10.5352C6.25972 10.6738 6.31476 10.8066 6.41272 10.9046C6.51068 11.0026 6.64354 11.0576 6.78208 11.0576C6.92062 11.0576 7.05348 11.0026 7.15144 10.9046L11.8467 6.20932C11.8953 6.16086 11.9339 6.10329 11.9602 6.03991C11.9865 5.97653 12 5.90858 12 5.83996C12 5.77134 11.9865 5.70339 11.9602 5.64001C11.9339 5.57663 11.8953 5.51906 11.8467 5.4706L7.15144 0.775309C7.05348 0.677348 6.92062 0.622314 6.78208 0.622314C6.64354 0.622314 6.51068 0.677348 6.41272 0.775309C6.31476 0.87327 6.25972 1.00613 6.25972 1.14467C6.25972 1.28321 6.31476 1.41607 6.41272 1.51403L10.218 5.31826Z" fill="white"/>
</svg>
