<svg width="14" height="12" viewBox="0 0 14 12" fill="none" xmlns="http://www.w3.org/2000/svg">
<path d="M4.32184 9.2378L1.42224 6.3382C1.266 6.18196 1.05409 6.09418 0.83313 6.09418C0.61217 6.09418 0.40026 6.18196 0.244018 6.3382C0.0877759 6.49444 0 6.70635 0 6.92731C0 7.03672 0.0215497 7.14505 0.0634184 7.24613C0.105287 7.34721 0.166655 7.43906 0.244018 7.51642L3.73691 11.0093C4.0628 11.3352 4.58924 11.3352 4.91513 11.0093L13.756 2.16846C13.9122 2.01222 14 1.80031 14 1.57935C14 1.35839 13.9122 1.14648 13.756 0.990234C13.5997 0.833992 13.3878 0.746216 13.1669 0.746216C12.9459 0.746216 12.734 0.833992 12.5778 0.990234L4.32184 9.2378Z" fill="#666666"/>
</svg>
