<svg width="13" height="16" viewBox="0 0 13 16" fill="none" xmlns="http://www.w3.org/2000/svg">
<path d="M6.5 0.339844H2.09375C1.67106 0.339844 1.26568 0.507756 0.966798 0.806642C0.667912 1.10553 0.5 1.51091 0.5 1.93359V13.7461C0.5 14.1688 0.667912 14.5742 0.966798 14.873C1.26568 15.1719 1.67106 15.3398 2.09375 15.3398H10.9062C11.3289 15.3398 11.7343 15.1719 12.0332 14.873C12.3321 14.5742 12.5 14.1688 12.5 13.7461V6.33984H8.09375C7.67106 6.33984 7.26569 6.17193 6.9668 5.87304C6.66791 5.57416 6.5 5.16878 6.5 4.74609V0.339844ZM12.3597 5.40234C12.2803 5.22619 12.1698 5.06577 12.0335 4.92872L7.91075 0.806719C7.77373 0.670332 7.6133 0.559696 7.43713 0.480094V4.74609C7.43713 5.10834 7.73113 5.40234 8.09338 5.40234H12.3597Z" fill="black"/>
</svg>
