<svg width="16" height="16" viewBox="0 0 16 16" fill="none" xmlns="http://www.w3.org/2000/svg">
<path fill-rule="evenodd" clip-rule="evenodd" d="M11.5342 15.3377C10.4525 15.2979 7.38724 14.8743 4.17697 11.6648C0.967452 8.45448 0.544573 5.38993 0.504013 4.30757C0.443923 2.65812 1.7073 1.05599 3.16672 0.430311C3.34246 0.354424 3.53492 0.325531 3.7252 0.346468C3.91548 0.367406 4.09704 0.437454 4.25208 0.549739C5.45387 1.42554 6.2831 2.75051 6.99516 3.79231C7.15183 4.02119 7.21882 4.29972 7.18335 4.57482C7.14789 4.84991 7.01247 5.10235 6.80287 5.28402L5.33744 6.37239C5.26665 6.42351 5.21681 6.4986 5.19719 6.5837C5.17758 6.66879 5.18951 6.75812 5.23079 6.83508C5.56278 7.43822 6.15316 8.33656 6.82916 9.01256C7.50517 9.68857 8.44631 10.318 9.09152 10.6876C9.17242 10.733 9.26764 10.7457 9.35761 10.723C9.44758 10.7004 9.52546 10.6442 9.57524 10.5659L10.5292 9.11396C10.7045 8.881 10.9632 8.72494 11.2511 8.67845C11.539 8.63197 11.8337 8.69867 12.0735 8.86459C13.1303 9.59618 14.3636 10.4111 15.2664 11.5671C15.3878 11.7233 15.4651 11.9092 15.49 12.1054C15.515 12.3016 15.4868 12.5009 15.4084 12.6825C14.7797 14.1494 13.1889 15.3986 11.5342 15.3377Z" fill="black"/>
</svg>
