<svg width="28" height="40" viewBox="0 0 28 40" fill="none" xmlns="http://www.w3.org/2000/svg">
<path fill-rule="evenodd" clip-rule="evenodd" d="M13.9266 0C10.233 0 6.69075 1.46726 4.07901 4.07901C1.46726 6.69075 0 10.233 0 13.9266C0 17.1019 1.55978 20.8565 3.83539 24.8841C6.13885 28.959 9.31411 33.5381 12.793 38.4124L13.9266 40L15.0602 38.4124C18.5419 33.5381 21.7144 28.959 24.0178 24.8841C26.2934 20.8565 27.8532 17.1019 27.8532 13.9266C27.8532 12.0977 27.493 10.2868 26.7931 8.59712C26.0932 6.90747 25.0674 5.37221 23.7742 4.07901C22.481 2.7858 20.9457 1.75998 19.2561 1.0601C17.5664 0.360222 15.7555 0 13.9266 0ZM13.9266 6.9633C12.0798 6.9633 10.3087 7.69693 9.00281 9.00281C7.69694 10.3087 6.9633 12.0798 6.9633 13.9266C6.9633 15.7734 7.69694 17.5445 9.00281 18.8504C10.3087 20.1563 12.0798 20.8899 13.9266 20.8899C15.7734 20.8899 17.5445 20.1563 18.8504 18.8504C20.1563 17.5445 20.8899 15.7734 20.8899 13.9266C20.8899 12.0798 20.1563 10.3087 18.8504 9.00281C17.5445 7.69693 15.7734 6.9633 13.9266 6.9633Z" fill="black"/>
</svg>
