<svg width="1494" height="296" viewBox="0 0 1494 296" fill="none" xmlns="http://www.w3.org/2000/svg">
<path d="M0 44.8966V0H234.802V44.8966H143.886V296H91.1144V44.8966H0Z" fill="#F5F5F5"/>
<path d="M264.647 296V0H375.131C397.794 0 416.768 3.97315 432.052 11.9195C447.469 19.8658 459.13 30.9906 467.036 45.294C474.941 59.4649 478.894 75.9535 478.894 94.7597C478.894 113.698 474.875 130.121 466.838 144.027C458.932 157.933 447.205 168.66 431.657 176.209C416.109 183.758 397.003 187.533 374.34 187.533H295.875V143.232H367.027C380.335 143.232 391.206 141.378 399.639 137.67C408.203 133.962 414.462 128.532 418.415 121.38C422.5 114.096 424.542 105.222 424.542 94.7597C424.542 84.2971 422.5 75.3575 418.415 67.9409C414.33 60.3919 408.071 54.6971 399.639 50.8564C391.206 46.8832 380.269 44.8966 366.829 44.8966H318.011V296H264.647ZM430.076 296L358.726 161.707H416.834L489.765 296H430.076Z" fill="#F5F5F5"/>
<path d="M566.253 0V296H512.889V0H566.253Z" fill="#F5F5F5"/>
<path d="M851.258 0V296H803.428L664.878 94.3624H662.309V296H608.945V0H656.775L795.324 201.638H797.894V0H851.258Z" fill="#F5F5F5"/>
<path d="M947.313 0V296H893.949V0H947.313Z" fill="#F5F5F5"/>
<path d="M977.158 44.8966V0H1211.96V44.8966H1121.04V296H1068.27V44.8966H977.158Z" fill="#F5F5F5"/>
<path d="M1226.39 0H1286.67L1358.61 131.114H1361.78L1433.72 0H1494L1386.68 185.546V296H1333.51V185.546L1226.39 0Z" fill="#F5F5F5"/>
</svg>
